<?xml version="1.0" encoding="utf-8"?>
<!-- Generator: Adobe Illustrator 19.2.0, SVG Export Plug-In . SVG Version: 6.00 Build 0)  -->
<svg version="1.1" id="Capa_1" xmlns="http://www.w3.org/2000/svg" xmlns:xlink="http://www.w3.org/1999/xlink" x="0px" y="0px"
	 viewBox="0 0 50 50" style="enable-background:new 0 0 50 50;" xml:space="preserve">
<style type="text/css">
	.st0{fill:none;}
	.st1{fill:#333333;}
</style>
<g>
	<path class="st0" d="M26,41c-1.1,0-2,0.9-2,2v2c0,1.1,0.9,2,2,2s2-0.9,2-2v-2C28,41.9,27.1,41,26,41z"/>
	<path class="st0" d="M20,41c-1.1,0-2,0.9-2,2v2c0,1.1,0.9,2,2,2s2-0.9,2-2v-2C22,41.9,21.1,41,20,41z"/>
	<path class="st0" d="M14,41c-1.1,0-2,0.9-2,2v1.8c0,0.1,0,0.3,0,0.4c0.1,1,0.9,1.8,2,1.8c1.1,0,2-0.9,2-2v-2C16,41.9,15.1,41,14,41
		z"/>
	<path class="st0" d="M32,41c-1.1,0-2,0.9-2,2v2c0,1.1,0.9,2,2,2c1,0,1.9-0.8,2-1.8c0-0.1,0-0.1,0-0.2v-0.1c0,0,0-0.1,0-0.1V43
		C34,41.9,33.1,41,32,41z"/>
	<path class="st1" d="M45.5,16.5l3.6-5.9l-1.8-0.8L43.4,16h-8.8h-2.9h-6.2c-0.4,0-0.8,0.2-0.9,0.6l-3.4,8.5
		c-0.6,1.5-2.4,2.3-3.9,1.7c-1.5-0.6-2.3-2.4-1.7-3.9L20,12.2c1.1-2.7,3.4-4.5,6.3-4.9l0.3,0C27.8,7,29,6.4,29.8,5.4L31.7,3
		l-1.9-0.8l-1.5,1.9c-0.5,0.6-1.2,1-1.9,1.1L26,5.3c-3.5,0.5-6.5,2.9-7.9,6.2L17.5,13h-1.3c-2.3,0-4.5,1.2-5.8,3.1l-4.1,6.2
		l-4.4,2.9l0.5,2.1l5.2-3.5c0.1-0.1,0.2-0.2,0.3-0.3l4.2-6.3c0.9-1.4,2.5-2.2,4.2-2.2h0.5l-2.9,7.2c-1,2.6,0.2,5.5,2.8,6.5
		c2.6,1,5.5-0.3,6.5-2.8l3.2-7.9h5.6h2.8h8.8c1.5,0,2.7,1.3,2.5,2.8C45.9,22,44.8,23,43.5,23H42c0,0-0.1,0-0.1,0c-0.1,0-0.1,0-0.2,0
		c0,0-0.1,0-0.1,0c-0.1,0-0.2,0.1-0.3,0.2c0,0,0,0,0,0c0,0-0.1,0.1-0.1,0.1c0,0,0,0,0,0c0,0,0,0-0.1,0.1c0,0,0,0,0,0
		C41,23.8,40.9,24,41,24.3c0,0,0,0,0,0c0,0,0,0,0,0.1c0,0,0,0,0,0c0,0,0,0.1,0.1,0.1c0,0,0,0,0,0c0,0,0,0,0,0.1c0,0,0,0,0,0
		c0.1,0.1,0.2,0.2,0.3,0.2c0,0,0,0,0.1,0c0,0,0,0,0,0c0,0,0,0,0.1,0c0,0,0,0,0,0c0,0,0,0,0.1,0c0,0,0,0,0,0c0.1,0,0.1,0,0.2,0
		c0,0,0,0,0,0c0,0,0,0,0,0h0.5c1.5,0,2.6,1.3,2.5,2.8C44.8,29,43.8,30,42.5,30H41c0,0-0.1,0-0.1,0c-0.1,0-0.1,0-0.2,0
		c0,0-0.1,0-0.1,0c-0.1,0-0.2,0.1-0.3,0.2c0,0,0,0,0,0c0,0-0.1,0.1-0.1,0.1c0,0,0,0,0,0c0,0,0,0-0.1,0.1c0,0,0,0,0,0
		C40,30.8,39.9,31,40,31.3c0,0,0,0,0,0c0,0,0,0,0,0.1c0,0,0,0,0,0c0,0,0,0.1,0.1,0.1c0,0,0,0,0,0c0,0,0,0,0,0.1c0,0,0,0,0,0
		c0.1,0.1,0.2,0.2,0.3,0.2c0,0,0,0,0.1,0c0,0,0,0,0,0c0,0,0,0,0.1,0c0,0,0,0,0,0c0,0,0,0,0.1,0c0,0,0,0,0,0c0.1,0,0.1,0,0.2,0
		c0,0,0,0,0,0c0,0,0,0,0,0h0.5c1.5,0,2.6,1.3,2.5,2.8C43.8,36,42.8,37,41.5,37h-1h-0.8c0,0-0.1,0-0.1,0c-0.6,0-1,0.5-1,1s0.5,1,1,1
		h0.8c1.5,0,2.6,1.2,2.5,2.7C42.9,43,41.8,44,40.5,44H36v-1c0-2.2-1.8-4-4-4c-1.2,0-2.3,0.6-3,1.4c-0.7-0.8-1.8-1.4-3-1.4
		s-2.3,0.6-3,1.4c-0.7-0.8-1.8-1.4-3-1.4s-2.3,0.6-3,1.4c-0.7-0.8-1.8-1.4-3-1.4c-2.2,0-4,1.8-4,4v1H6l0.4,2h3.7c0.4,1.7,2,3,3.8,3
		c1.2,0,2.3-0.6,3-1.4c0.7,0.8,1.8,1.4,3,1.4s2.3-0.6,3-1.4c0.7,0.8,1.8,1.4,3,1.4s2.3-0.6,3-1.4c0.7,0.8,1.8,1.4,3,1.4
		c1.9,0,3.4-1.3,3.8-3h4.7c2.3,0,4.3-1.8,4.5-4.1c0.1-1.4-0.4-2.6-1.3-3.5c1.2-0.7,2.1-1.9,2.3-3.4c0.1-1.4-0.4-2.6-1.3-3.6
		c1.2-0.7,2.1-1.9,2.3-3.4c0.1-1.4-0.4-2.7-1.3-3.6c1.2-0.7,2.1-1.9,2.3-3.4C48.2,19.1,47.1,17.3,45.5,16.5z M16,45c0,1.1-0.9,2-2,2
		c-1.1,0-1.9-0.8-2-1.8c0-0.1,0-0.3,0-0.4V43c0-1.1,0.9-2,2-2s2,0.9,2,2V45z M22,45c0,1.1-0.9,2-2,2s-2-0.9-2-2v-2c0-1.1,0.9-2,2-2
		s2,0.9,2,2V45z M28,45c0,1.1-0.9,2-2,2s-2-0.9-2-2v-2c0-1.1,0.9-2,2-2s2,0.9,2,2V45z M34,44.8C34,44.8,34,44.9,34,44.8V45
		c0,0.1,0,0.1,0,0.2c-0.1,1-1,1.8-2,1.8c-1.1,0-2-0.9-2-2v-2c0-1.1,0.9-2,2-2s2,0.9,2,2V44.8z"/>
</g>
</svg>
