<?xml version="1.0" encoding="utf-8"?>
<!-- Generator: Adobe Illustrator 21.1.0, SVG Export Plug-In . SVG Version: 6.00 Build 0)  -->
<svg version="1.1" id="Capa_1" xmlns="http://www.w3.org/2000/svg" xmlns:xlink="http://www.w3.org/1999/xlink" x="0px" y="0px"
	 viewBox="0 0 59 59" style="enable-background:new 0 0 59 59;" xml:space="preserve">
<style type="text/css">
	.st0{fill:#FFFFFF;}
</style>
<g>
	<path class="st0" d="M52,21c-0.6,0-1,0.4-1,1v32H2V5h49v1c0,0.6,0.4,1,1,1s1-0.4,1-1V3H0v53h53V22C53,21.4,52.6,21,52,21z"/>
	<path class="st0" d="M58.7,7.3c-0.4-0.4-1-0.4-1.4,0L27,37.6L13.9,24.5c-0.4-0.4-1-0.4-1.4,0s-0.4,1,0,1.4l13.8,13.8
		c0.2,0.2,0.5,0.3,0.7,0.3s0.5-0.1,0.7-0.3l31-31C59.1,8.3,59.1,7.7,58.7,7.3z"/>
</g>
</svg>
