<?xml version="1.0" encoding="utf-8"?>
<!-- Generator: Adobe Illustrator 21.1.0, SVG Export Plug-In . SVG Version: 6.00 Build 0)  -->
<svg version="1.1" id="Capa_1" xmlns="http://www.w3.org/2000/svg" xmlns:xlink="http://www.w3.org/1999/xlink" x="0px" y="0px"
	 viewBox="0 0 60 60" style="enable-background:new 0 0 60 60;" xml:space="preserve">
<style type="text/css">
	.st0{fill:#FFFFFF;}
</style>
<g>
	<path class="st0" d="M26.5,10.5l-4.7-6.6l0,0l-0.3-0.4H0v53h60v-46H26.5z M58,12.5v5H31.5l-3.6-5H58z M2,54.5v-49h18.5l5,7h0
		l4.7,6.6c0.2,0.3,0.5,0.4,0.8,0.4v0h27v35H2z"/>
	<path class="st0" d="M36,29.5c0-3.3-2.7-6-6-6s-6,2.7-6,6v4h-4v16h20v-16h-4V29.5z M26,29.5c0-2.2,1.8-4,4-4s4,1.8,4,4v4h-8V29.5z
		 M38,35.5v12H22v-12h2h12H38z"/>
	<path class="st0" d="M29,44.4v1.1c0,0.6,0.4,1,1,1s1-0.4,1-1v-1.1c1.7-0.4,3-2,3-3.9c0-2.2-1.8-4-4-4s-4,1.8-4,4
		C26,42.4,27.3,43.9,29,44.4z M30,38.5c1.1,0,2,0.9,2,2s-0.9,2-2,2s-2-0.9-2-2S28.9,38.5,30,38.5z"/>
</g>
</svg>
