<?xml version="1.0" encoding="utf-8"?>
<!-- Generator: Adobe Illustrator 21.1.0, SVG Export Plug-In . SVG Version: 6.00 Build 0)  -->
<svg version="1.1" id="Capa_1" xmlns="http://www.w3.org/2000/svg" xmlns:xlink="http://www.w3.org/1999/xlink" x="0px" y="0px"
	 viewBox="0 0 56 56" style="enable-background:new 0 0 56 56;" xml:space="preserve">
<style type="text/css">
	.st0{fill:#FFFFFF;}
</style>
<path class="st0" d="M40,0c-8.8,0-16,7.2-16,16c0,3.3,1,6.3,2.7,8.9L0.3,51.3c-0.4,0.4-0.4,1,0,1.4C0.5,52.9,0.7,53,1,53
	s0.5-0.1,0.7-0.3L6,48.4l7.3,7.3c0.2,0.2,0.5,0.3,0.7,0.3s0.5-0.1,0.7-0.3c0.4-0.4,0.4-1,0-1.4L7.4,47l3.6-3.6l5.3,5.3
	c0.2,0.2,0.5,0.3,0.7,0.3s0.5-0.1,0.7-0.3c0.4-0.4,0.4-1,0-1.4L12.4,42l3.6-3.6l7.3,7.3c0.2,0.2,0.5,0.3,0.7,0.3s0.5-0.1,0.7-0.3
	c0.4-0.4,0.4-1,0-1.4L17.4,37l10.5-10.5C30.9,29.9,35.2,32,40,32c8.8,0,16-7.2,16-16S48.8,0,40,0z M40,30c-7.7,0-14-6.3-14-14
	S32.3,2,40,2s14,6.3,14,14S47.7,30,40,30z"/>
</svg>
