<?xml version="1.0" encoding="utf-8"?>
<!-- Generator: Adobe Illustrator 21.1.0, SVG Export Plug-In . SVG Version: 6.00 Build 0)  -->
<svg version="1.1" id="Capa_1" xmlns="http://www.w3.org/2000/svg" xmlns:xlink="http://www.w3.org/1999/xlink" x="0px" y="0px"
	 viewBox="0 0 57 57" style="enable-background:new 0 0 57 57;" xml:space="preserve">
<style type="text/css">
	.st0{fill:#FFFFFF;}
</style>
<g>
	<path class="st0" d="M40.5,23V11.6C40.5,5.2,34.9,0,28,0S15.5,5.2,15.5,11.6V23h-9v26v8h44v-8V23H40.5z M17.5,11.6
		C17.5,6.3,22.2,2,28,2s10.5,4.3,10.5,9.6V23h-21V11.6z M48.5,55h-40v-4h40V55z M8.5,49V25h7h25h8v24H8.5z"/>
	<path class="st0" d="M28.5,31c-2.2,0-4,1.8-4,4v6c0,2.2,1.8,4,4,4s4-1.8,4-4v-6C32.5,32.8,30.7,31,28.5,31z M30.5,41
		c0,1.1-0.9,2-2,2s-2-0.9-2-2v-6c0-1.1,0.9-2,2-2s2,0.9,2,2V41z"/>
</g>
</svg>
