<?xml version="1.0" encoding="utf-8"?>
<!-- Generator: Adobe Illustrator 21.1.0, SVG Export Plug-In . SVG Version: 6.00 Build 0)  -->
<svg version="1.1" id="Capa_1" xmlns="http://www.w3.org/2000/svg" xmlns:xlink="http://www.w3.org/1999/xlink" x="0px" y="0px"
	 viewBox="0 0 60 60" style="enable-background:new 0 0 60 60;" xml:space="preserve">
<style type="text/css">
	.st0{fill:#FFFFFF;}
</style>
<g>
	<path class="st0" d="M19,45c2.2,0,4-1.8,4-4s-1.8-4-4-4s-4,1.8-4,4S16.8,45,19,45z M19,39c1.1,0,2,0.9,2,2s-0.9,2-2,2s-2-0.9-2-2
		S17.9,39,19,39z"/>
	<path class="st0" d="M44,12c-2.2,0-4,1.8-4,4s1.8,4,4,4s4-1.8,4-4S46.2,12,44,12z M44,18c-1.1,0-2-0.9-2-2s0.9-2,2-2s2,0.9,2,2
		S45.1,18,44,18z"/>
	<path class="st0" d="M19,49c4.4,0,8-3.6,8-8s-3.6-8-8-8s-8,3.6-8,8S14.6,49,19,49z M19,35c3.3,0,6,2.7,6,6s-2.7,6-6,6s-6-2.7-6-6
		S15.7,35,19,35z"/>
	<path class="st0" d="M59.2,36.9c0.1-0.5,0.2-1,0.3-1.5c0,0,0-0.1,0-0.1c0,0,0,0,0,0c0.3-1.7,0.5-3.5,0.5-5.3
		c0-4.1-0.8-8.1-2.4-11.6c0,0,0,0,0,0c-1.2-2.7-2.7-5.3-4.6-7.6c-1.1-1.3-2.4-2.6-3.7-3.7c-2.3-1.9-4.8-3.5-7.6-4.7c0,0,0,0,0,0
		C38.1,0.8,34.1,0,30,0c-1.7,0-3.4,0.2-5.1,0.4c0,0,0,0,0,0c0,0-0.1,0-0.1,0c-0.4,0.1-0.8,0.1-1.2,0.2c0,0,0,0-0.1,0
		c-1.6,0.4-3.1,0.8-4.6,1.4c-0.1,0.1-0.3,0.1-0.4,0.2c-0.2,0.1-0.4,0.2-0.7,0.3c-0.2,0.1-0.4,0.2-0.6,0.3C17,3,16.8,3.1,16.7,3.1
		c0,0-0.1,0-0.1,0.1c0,0,0,0,0,0c-0.1,0-0.1,0.1-0.2,0.1c-0.1,0.1-0.3,0.1-0.4,0.2c-0.1,0.1-0.2,0.1-0.4,0.2
		c-0.1,0.1-0.3,0.2-0.4,0.2c-0.2,0.1-0.3,0.2-0.5,0.3c-0.1,0.1-0.2,0.1-0.3,0.2c-0.3,0.2-0.7,0.4-1,0.7c0,0-0.1,0-0.1,0.1
		c-0.2,0.1-0.4,0.2-0.5,0.4c0,0,0,0-0.1,0.1c-0.4,0.3-0.7,0.5-1.1,0.8c0,0,0,0,0,0c0,0,0,0,0,0c-1.6,1.3-3.2,2.8-4.5,4.4
		c0,0,0,0,0,0.1C2.6,16.1,0,22.7,0,30c0,3,0.4,5.9,1.3,8.6c0,0,0,0,0,0c0,0,0,0.1,0,0.1c0.2,0.5,0.3,1.1,0.5,1.6
		c0.1,0.2,0.1,0.4,0.2,0.6c0.1,0.3,0.2,0.6,0.4,0.9c0.1,0.3,0.3,0.6,0.4,0.9C2.9,42.9,3,43,3.1,43.2c2.9,6,7.8,10.8,13.8,13.8
		c0.1,0.1,0.3,0.1,0.4,0.2c0.3,0.1,0.6,0.3,0.9,0.4c0.3,0.1,0.6,0.2,0.9,0.4c0.2,0.1,0.4,0.2,0.6,0.2c0.5,0.2,1.1,0.4,1.6,0.5
		c0,0,0.1,0,0.1,0c0,0,0,0,0,0C24.1,59.6,27,60,30,60c5,0,9.7-1.2,13.9-3.4c0,0,0.1,0,0.1,0c0.1,0,0.1-0.1,0.2-0.1
		c0.2-0.1,0.5-0.3,0.7-0.4c0.2-0.1,0.5-0.3,0.7-0.4c0.4-0.3,0.8-0.5,1.2-0.8c0.2-0.1,0.3-0.2,0.5-0.4c0.3-0.2,0.5-0.4,0.8-0.6
		c0.1-0.1,0.3-0.2,0.4-0.3c0.3-0.2,0.6-0.5,0.9-0.7c0.1-0.1,0.2-0.2,0.3-0.3c0.3-0.3,0.7-0.6,1-0.9c0,0,0.1-0.1,0.1-0.1
		c0.5-0.5,1-0.9,1.4-1.4c0,0,0,0,0.1,0c2.2-2.5,4-5.3,5.3-8.3c0-0.1,0.1-0.2,0.1-0.3c0.1-0.3,0.2-0.5,0.3-0.8c0,0,0,0,0,0
		c0.4-1.2,0.8-2.3,1.1-3.6C59.2,37,59.2,36.9,59.2,36.9z M49,50.5c-0.3,0.2-0.5,0.5-0.8,0.7c-0.1,0.1-0.2,0.2-0.3,0.3
		c-0.2,0.2-0.4,0.3-0.6,0.5c-0.2,0.1-0.3,0.3-0.5,0.4c-0.2,0.1-0.3,0.2-0.5,0.4c-0.2,0.1-0.3,0.2-0.5,0.3c0.2-1,0.1-2-0.3-2.9
		c-0.7-1.5-2-2.5-3.6-2.8l-1-0.2v-1.8l1-0.2c1.6-0.3,2.9-1.4,3.5-2.9s0.4-3.2-0.6-4.5l-0.6-0.9l1.3-1.3l1.3,0.9
		c1.3,0.9,3,1.1,4.4,0.5s2.5-1.9,2.8-3.5l0.3-1.5h1.8l0.2,1c0.1,0.9,0.5,1.7,1.1,2.4c-0.2,1.2-0.6,2.4-1,3.6c-0.3,0-0.6-0.1-1-0.1
		c-3.6,0-6.5,2.9-6.5,6.5c0,1.4,0.4,2.7,1.2,3.8c-0.4,0.4-0.7,0.7-1.1,1.1C49.1,50.4,49.1,50.5,49,50.5z M55.3,41.9
		c-1,2.1-2.2,4.1-3.7,5.9c-0.4-0.7-0.6-1.5-0.6-2.3c0-2.5,2-4.5,4.5-4.5c0.1,0,0.2,0,0.2,0c-0.1,0.3-0.2,0.5-0.3,0.8
		C55.4,41.8,55.3,41.9,55.3,41.9z M44,28c-6.6,0-12-5.4-12-12c0-5.5,3.8-10.4,9.2-11.7c1.9,0.9,3.8,1.9,5.5,3.2c0,0,0.1,0,0.1,0.1
		C47,7.8,47.3,8,47.6,8.2c0.1,0.1,0.2,0.1,0.3,0.2c0.2,0.2,0.4,0.3,0.6,0.5c0.1,0.1,0.3,0.2,0.4,0.4c0.1,0.1,0.1,0.1,0.2,0.2
		c0.5,0.5,1,1,1.5,1.5c0.1,0.1,0.1,0.1,0.2,0.2c0.1,0.1,0.3,0.3,0.4,0.4c0.2,0.2,0.3,0.4,0.5,0.6c0.1,0.1,0.1,0.2,0.2,0.3
		c0.2,0.3,0.4,0.5,0.6,0.8c0,0,0.1,0.1,0.1,0.1c1.3,1.7,2.3,3.5,3.2,5.5C54.4,24.2,49.5,28,44,28z M23.2,2.8
		c-0.2,0.7-0.1,1.5,0.2,2.3c0.5,1.3,1.6,2.2,2.9,2.4L27,7.7v1.1l-0.7,0.1c-1.4,0.2-2.5,1.1-3,2.3c-0.5,1.3-0.4,2.7,0.4,3.8l0.4,0.5
		l-0.8,0.8l-0.2-0.1c-1.1-0.8-2.6-1-3.9-0.5c-1.3,0.5-2.2,1.7-2.4,3.1l0,0.2h-1.1l-0.1-0.6c-0.3-1.3-1.2-2.4-2.4-2.9
		c-1.3-0.5-2.7-0.3-3.8,0.5l-0.5,0.4L8,15.5L8.4,15c0.7-1,0.9-2.2,0.5-3.3c0.1-0.1,0.2-0.2,0.3-0.3c0.3-0.3,0.5-0.6,0.8-0.8
		c0.3-0.3,0.6-0.6,0.8-0.8c0.1-0.1,0.3-0.2,0.4-0.4c0.6,2.1,2.5,3.7,4.8,3.7c2.8,0,5-2.2,5-5c0-1.5-0.7-2.9-1.8-3.8
		c0.6-0.3,1.2-0.5,1.9-0.7c0.1,0,0.1,0,0.2-0.1C21.9,3.2,22.6,3,23.2,2.8z M13,7.8c0.1-0.1,0.2-0.1,0.2-0.2c0.4-0.3,0.8-0.6,1.2-0.9
		c0.2-0.1,0.4-0.3,0.6-0.4c0,0,0.1,0,0.1-0.1C15.6,6,16,5.8,16.5,5.5c0.2-0.1,0.4-0.2,0.6-0.3c1.2,0.4,2,1.5,2,2.8c0,1.7-1.3,3-3,3
		s-3-1.3-3-3C13,7.9,13,7.8,13,7.8z M13.1,26.1C13.1,26.1,13.2,26.1,13.1,26.1c0.1,0,0.1-0.1,0.2-0.1c1.8-0.7,3.7-1,5.7-1
		c8.8,0,16,7.2,16,16c0,2.3-0.5,4.5-1.4,6.4c0,0,0,0,0,0c0,0,0,0,0,0.1c-2.1,4.7-6.5,8.3-11.9,9.2c0,0,0,0,0,0
		c-0.5-0.2-1-0.3-1.5-0.5c-0.2-0.1-0.4-0.2-0.7-0.3c-0.2-0.1-0.5-0.2-0.7-0.3c-0.3-0.1-0.6-0.3-0.9-0.4c-0.1-0.1-0.2-0.1-0.3-0.2
		c-5.6-2.7-10.1-7.3-12.8-12.8c-0.1-0.1-0.1-0.2-0.2-0.3c-0.1-0.3-0.3-0.6-0.4-0.9c-0.1-0.2-0.2-0.5-0.3-0.7
		c-0.1-0.2-0.2-0.4-0.3-0.7c-0.2-0.5-0.3-1-0.5-1.5c0,0,0,0,0,0C4.2,32.6,8,28.1,13.1,26.1z M25.7,57.7c4.1-1.6,7.4-4.6,9.3-8.5
		l1.6,0.7C36.7,50,36.9,50,37,50c0.4,0,0.7-0.2,0.9-0.6c0.2-0.5,0-1.1-0.5-1.3l-1.6-0.7c0.7-2,1.2-4.1,1.2-6.4
		c0-1.9-0.3-3.8-0.9-5.6l1.3-0.5c0.5-0.2,0.8-0.8,0.6-1.3s-0.8-0.8-1.3-0.6l-1.3,0.5c-1.7-3.7-4.6-6.7-8.2-8.6l0.7-1.6
		c0.2-0.5,0-1.1-0.5-1.3c-0.5-0.2-1.1,0-1.3,0.5l-0.7,1.6c-2-0.8-4.1-1.2-6.4-1.2c-1.9,0-3.8,0.3-5.6,0.9l-0.5-1.3
		c-0.2-0.5-0.8-0.8-1.3-0.6c-0.5,0.2-0.8,0.8-0.6,1.3l0.5,1.2c-4.2,1.9-7.5,5.3-9.2,9.7C2.1,32.9,2,31.5,2,30c0-5.1,1.4-9.9,3.8-14
		c0,0.1,0.1,0.3,0.2,0.4l2,2c0.3,0.4,0.9,0.4,1.3,0.1l1.2-0.9c0.6-0.4,1.2-0.5,1.9-0.2c0.6,0.3,1.1,0.8,1.2,1.5l0.3,1.4
		c0.1,0.5,0.5,0.8,1,0.8h2.8c0.5,0,0.9-0.4,1-0.8l0.2-1.1c0.1-0.7,0.6-1.3,1.2-1.5c0.6-0.3,1.4-0.2,1.9,0.2l0.9,0.6
		c0.4,0.3,0.9,0.3,1.3-0.1l2-2c0.3-0.3,0.4-0.9,0.1-1.3l-0.8-1.2c-0.4-0.6-0.5-1.3-0.2-1.9c0.3-0.6,0.8-1.1,1.5-1.2l1.5-0.2
		c0.5-0.1,0.9-0.5,0.9-1V6.8c0-0.5-0.3-0.9-0.8-1l-1.4-0.3c-0.7-0.1-1.2-0.6-1.5-1.2C25,3.7,25.1,3,25.5,2.5l0.1-0.1
		C27.1,2.1,28.5,2,30,2c2.9,0,5.7,0.4,8.3,1.2c-1.3,0.6-2.4,1.3-3.4,2.2l-0.7-0.7c-0.4-0.4-1-0.4-1.4,0s-0.4,1,0,1.4l0.8,0.8
		c-1.9,2.2-3.2,5.1-3.4,8.1h-1c-0.6,0-1,0.4-1,1c0,0.6,0.4,1,1,1h1.1c0.2,3.1,1.5,5.9,3.4,8.2l-0.7,0.7c-0.4,0.4-0.4,1,0,1.4
		c0.2,0.2,0.5,0.3,0.7,0.3s0.5-0.1,0.7-0.3l0.7-0.7c2.2,1.9,5,3.2,8.2,3.4V31c0,0.6,0.4,1,1,1s1-0.4,1-1v-1c3.1-0.2,5.9-1.5,8.1-3.4
		l0.8,0.8c0.2,0.2,0.5,0.3,0.7,0.3s0.5-0.1,0.7-0.3c0.4-0.4,0.4-1,0-1.4l-0.7-0.7c0.9-1,1.6-2.2,2.2-3.4c0.8,2.6,1.2,5.4,1.2,8.3
		c0,0.3,0,0.5,0,0.8c-0.1-0.4-0.5-0.8-1-0.8h-3.5c-0.5,0-0.9,0.3-1,0.8l-0.4,2.3c-0.2,0.9-0.8,1.6-1.6,2c-0.9,0.4-1.8,0.3-2.6-0.3
		l-2-1.3c-0.4-0.3-0.9-0.2-1.3,0.1l-2.4,2.4c-0.3,0.3-0.4,0.9-0.1,1.3l1.1,1.5c0.6,0.8,0.7,1.7,0.3,2.6s-1.1,1.5-2,1.7l-1.8,0.3
		c-0.5,0.1-0.8,0.5-0.8,1V48c0,0.5,0.4,0.9,0.8,1l1.9,0.3c0.9,0.1,1.7,0.7,2.1,1.6c0.4,0.9,0.3,1.8-0.2,2.6l-1,1.5
		c-3.8,1.9-8,3-12.6,3C28.5,58,27.1,57.9,25.7,57.7z"/>
</g>
</svg>
