<?xml version="1.0" encoding="utf-8"?>
<!-- Generator: Adobe Illustrator 21.1.0, SVG Export Plug-In . SVG Version: 6.00 Build 0)  -->
<svg version="1.1" id="Capa_1" xmlns="http://www.w3.org/2000/svg" xmlns:xlink="http://www.w3.org/1999/xlink" x="0px" y="0px"
	 viewBox="0 0 60 60" style="enable-background:new 0 0 60 60;" xml:space="preserve">
<style type="text/css">
	.st0{fill:#FFFFFF;}
</style>
<g>
	<path class="st0" d="M30,0C13.5,0,0,13.5,0,30s13.5,30,30,30s30-13.5,30-30S46.5,0,30,0z M30,58C14.6,58,2,45.4,2,30S14.6,2,30,2
		s28,12.6,28,28S45.4,58,30,58z"/>
	<path class="st0" d="M39,20c3.3,0,6-2.7,6-6s-2.7-6-6-6c-3.1,0-5.7,2.4-6,5.5L19,23.8c-0.9-0.5-1.9-0.8-3-0.8c-3.3,0-6,2.7-6,6
		s2.7,6,6,6c1.1,0,2.1-0.3,3-0.8L33,44.5c0.3,3.1,2.8,5.5,6,5.5c3.3,0,6-2.7,6-6s-2.7-6-6-6c-2.7,0-5,1.8-5.7,4.2l-12.7-9.3
		c0.9-1,1.4-2.4,1.4-3.9s-0.5-2.8-1.4-3.9l12.7-9.3C34,18.2,36.3,20,39,20z M39,10c2.2,0,4,1.8,4,4s-1.8,4-4,4s-4-1.8-4-4
		S36.8,10,39,10z M12,29c0-2.2,1.8-4,4-4s4,1.8,4,4s-1.8,4-4,4S12,31.2,12,29z M39,40c2.2,0,4,1.8,4,4s-1.8,4-4,4s-4-1.8-4-4
		S36.8,40,39,40z"/>
</g>
</svg>
